HIERARCHY
ROOT Hips
{
	OFFSET 0.000000 100.481300 0.000000
	CHANNELS 6 Xposition Yposition Zposition Xrotation Yrotation Zrotation 
	JOINT Spine
	{
		OFFSET -0.279200 12.230698 -2.892100
		CHANNELS 3 Xrotation Yrotation Zrotation
		JOINT Spine1
		{
			OFFSET -0.232667 10.192268 -1.242267
			CHANNELS 3 Xrotation Yrotation Zrotation
			JOINT Spine1_split
			{
				OFFSET -0.232667 10.192268 -1.242267
				CHANNELS 3 Xrotation Yrotation Zrotation
				JOINT Spine2
				{
					OFFSET -0.232667 10.192268 -1.242267
					CHANNELS 3 Xrotation Yrotation Zrotation
					JOINT Neck
					{
						OFFSET -0.418800 17.814194 8.416900
						CHANNELS 3 Xrotation Yrotation Zrotation
						JOINT Head
						{
							OFFSET 0.000000 7.031097 3.806800
							CHANNELS 3 Xrotation Yrotation Zrotation
							JOINT HeadTop_End
							{
								OFFSET 0.000000 24.646606 12.978600
								CHANNELS 3 Xrotation Yrotation Zrotation
								End Site
								{
									OFFSET 0.000000 0.000000 0.000000
								}
							}
						}
					}
					JOINT LeftShoulder
					{
						OFFSET 8.476499 7.247704 -3.868750
						CHANNELS 3 Xrotation Yrotation Zrotation
						JOINT LeftShoulder_split
						{
							OFFSET 8.476499 7.247704 -3.868750
							CHANNELS 3 Xrotation Yrotation Zrotation
							JOINT LeftArm
							{
								OFFSET 9.308998 -2.777710 0.208600
								CHANNELS 3 Xrotation Yrotation Zrotation
								JOINT LeftForeArm
								{
									OFFSET 29.972298 0.000000 0.000000
									CHANNELS 3 Xrotation Yrotation Zrotation
									JOINT LeftHand
									{
										OFFSET 26.026505 0.000000 0.000000
										CHANNELS 3 Xrotation Yrotation Zrotation
										JOINT LeftHandThumb1
										{
											OFFSET 12.240501 -7.147949 9.207150
											CHANNELS 3 Xrotation Yrotation Zrotation
											JOINT LeftHandThumb2
											{
												OFFSET 4.138618 -2.389435 2.389433
												CHANNELS 3 Xrotation Yrotation Zrotation
												JOINT LeftHandThumb3
												{
													OFFSET 2.726913 -1.574387 1.574386
													CHANNELS 3 Xrotation Yrotation Zrotation
													JOINT LeftHandThumb4
													{
														OFFSET 3.941010 -2.275345 2.275342
														CHANNELS 3 Xrotation Yrotation Zrotation
														End Site
														{
															OFFSET 0.000000 0.000000 0.000000
														}
													}
												}
											}
										}
										JOINT LeftHandIndex1
										{
											OFFSET 24.424698 -1.985611 5.953459
											CHANNELS 3 Xrotation Yrotation Zrotation
											JOINT LeftHandIndex2
											{
												OFFSET 6.426697 0.000000 0.000000
												CHANNELS 3 Xrotation Yrotation Zrotation
												JOINT LeftHandIndex3
												{
													OFFSET 5.337898 0.000000 0.000000
													CHANNELS 3 Xrotation Yrotation Zrotation
													JOINT LeftHandIndex4
													{
														OFFSET 4.409401 0.000000 0.000000
														CHANNELS 3 Xrotation Yrotation Zrotation
														End Site
														{
															OFFSET 0.000000 0.000000 0.000000
														}
													}
												}
											}
										}
										JOINT LeftHandMiddle1
										{
											OFFSET 23.810104 0.000000 0.000000
											CHANNELS 3 Xrotation Yrotation Zrotation
											JOINT LeftHandMiddle2
											{
												OFFSET 7.176498 0.000000 0.000000
												CHANNELS 3 Xrotation Yrotation Zrotation
												JOINT LeftHandMiddle3
												{
													OFFSET 6.774902 0.000000 0.000000
													CHANNELS 3 Xrotation Yrotation Zrotation
													JOINT LeftHandMiddle4
													{
														OFFSET 5.403328 0.000000 0.000000
														CHANNELS 3 Xrotation Yrotation Zrotation
														End Site
														{
															OFFSET 0.000000 0.000000 0.000000
														}
													}
												}
											}
										}
										JOINT LeftHandRing1
										{
											OFFSET 22.908401 -0.839279 -6.020567
											CHANNELS 3 Xrotation Yrotation Zrotation
											JOINT LeftHandRing2
											{
												OFFSET 6.337502 0.000000 0.000000
												CHANNELS 3 Xrotation Yrotation Zrotation
												JOINT LeftHandRing3
												{
													OFFSET 5.779297 0.000000 0.000000
													CHANNELS 3 Xrotation Yrotation Zrotation
													JOINT LeftHandRing4
													{
														OFFSET 4.965698 0.000000 0.000000
														CHANNELS 3 Xrotation Yrotation Zrotation
														End Site
														{
															OFFSET 0.000000 0.000000 0.000000
														}
													}
												}
											}
										}
										JOINT LeftHandPinky1
										{
											OFFSET 20.037003 -1.530319 -10.950146
											CHANNELS 3 Xrotation Yrotation Zrotation
											JOINT LeftHandPinky2
											{
												OFFSET 5.254700 0.000000 0.000000
												CHANNELS 3 Xrotation Yrotation Zrotation
												JOINT LeftHandPinky3
												{
													OFFSET 4.810204 0.000000 0.000000
													CHANNELS 3 Xrotation Yrotation Zrotation
													JOINT LeftHandPinky4
													{
														OFFSET 3.647202 0.000000 0.000000
														CHANNELS 3 Xrotation Yrotation Zrotation
														End Site
														{
															OFFSET 0.000000 0.000000 0.000000
														}
													}
												}
											}
										}
									}
								}
							}
						}
					}
					JOINT RightShoulder
					{
						OFFSET -7.570500 7.247704 -3.868750
						CHANNELS 3 Xrotation Yrotation Zrotation
						JOINT RightShoulder_split
						{
							OFFSET -7.570500 7.247704 -3.868750
							CHANNELS 3 Xrotation Yrotation Zrotation
							JOINT RightArm
							{
								OFFSET -9.308998 -2.777710 0.208500
								CHANNELS 3 Xrotation Yrotation Zrotation
								JOINT RightForeArm
								{
									OFFSET -29.972300 0.000000 0.000000
									CHANNELS 3 Xrotation Yrotation Zrotation
									JOINT RightHand
									{
										OFFSET -26.026505 0.000000 0.000000
										CHANNELS 3 Xrotation Yrotation Zrotation
										JOINT RightHandThumb1
										{
											OFFSET -12.240601 -7.148026 9.207092
											CHANNELS 3 Xrotation Yrotation Zrotation
											JOINT RightHandThumb2
											{
												OFFSET -4.138618 -2.389435 2.389433
												CHANNELS 3 Xrotation Yrotation Zrotation
												JOINT RightHandThumb3
												{
													OFFSET -2.726974 -1.574417 1.574421
													CHANNELS 3 Xrotation Yrotation Zrotation
													JOINT RightHandThumb4
													{
														OFFSET -3.941010 -2.275345 2.275343
														CHANNELS 3 Xrotation Yrotation Zrotation
														End Site
														{
															OFFSET 0.000000 0.000000 0.000000
														}
													}
												}
											}
										}
										JOINT RightHandIndex1
										{
											OFFSET -24.424698 -1.985657 5.953444
											CHANNELS 3 Xrotation Yrotation Zrotation
											JOINT RightHandIndex2
											{
												OFFSET -6.426697 0.000000 0.000000
												CHANNELS 3 Xrotation Yrotation Zrotation
												JOINT RightHandIndex3
												{
													OFFSET -5.337898 0.000000 0.000000
													CHANNELS 3 Xrotation Yrotation Zrotation
													JOINT RightHandIndex4
													{
														OFFSET -4.409401 0.000000 0.000000
														CHANNELS 3 Xrotation Yrotation Zrotation
														End Site
														{
															OFFSET 0.000000 0.000000 0.000000
														}
													}
												}
											}
										}
										JOINT RightHandMiddle1
										{
											OFFSET -23.810097 0.000000 0.000000
											CHANNELS 3 Xrotation Yrotation Zrotation
											JOINT RightHandMiddle2
											{
												OFFSET -7.176498 0.000000 0.000000
												CHANNELS 3 Xrotation Yrotation Zrotation
												JOINT RightHandMiddle3
												{
													OFFSET -6.774902 0.000000 0.000000
													CHANNELS 3 Xrotation Yrotation Zrotation
													JOINT RightHandMiddle4
													{
														OFFSET -5.403328 0.000000 0.000000
														CHANNELS 3 Xrotation Yrotation Zrotation
														End Site
														{
															OFFSET 0.000000 0.000000 0.000000
														}
													}
												}
											}
										}
										JOINT RightHandRing1
										{
											OFFSET -22.908302 -0.839325 -6.020576
											CHANNELS 3 Xrotation Yrotation Zrotation
											JOINT RightHandRing2
											{
												OFFSET -6.337502 0.000000 0.000000
												CHANNELS 3 Xrotation Yrotation Zrotation
												JOINT RightHandRing3
												{
													OFFSET -5.779297 0.000000 0.000000
													CHANNELS 3 Xrotation Yrotation Zrotation
													JOINT RightHandRing4
													{
														OFFSET -4.965698 0.000000 0.000000
														CHANNELS 3 Xrotation Yrotation Zrotation
														End Site
														{
															OFFSET 0.000000 0.000000 0.000000
														}
													}
												}
											}
										}
										JOINT RightHandPinky1
										{
											OFFSET -20.037003 -1.530334 -10.950259
											CHANNELS 3 Xrotation Yrotation Zrotation
											JOINT RightHandPinky2
											{
												OFFSET -5.254700 0.000000 0.000000
												CHANNELS 3 Xrotation Yrotation Zrotation
												JOINT RightHandPinky3
												{
													OFFSET -4.810204 0.000000 0.000000
													CHANNELS 3 Xrotation Yrotation Zrotation
													JOINT RightHandPinky4
													{
														OFFSET -3.647202 0.000000 0.000000
														CHANNELS 3 Xrotation Yrotation Zrotation
														End Site
														{
															OFFSET 0.000000 0.000000 0.000000
														}
													}
												}
											}
										}
									}
								}
							}
						}
					}
				}
			}
		}
	}
	JOINT LeftUpLeg
	{
		OFFSET 15.427100 -6.655098 0.678600
		CHANNELS 3 Xrotation Yrotation Zrotation
		JOINT LeftLeg
		{
			OFFSET 4.081073 -39.591068 13.024000
			CHANNELS 3 Xrotation Yrotation Zrotation
			JOINT LeftFoot
			{
				OFFSET -4.081074 -37.707932 -15.979700
				CHANNELS 3 Xrotation Yrotation Zrotation
				JOINT LeftToeBase
				{
					OFFSET 5.346399 -15.068900 20.645000
					CHANNELS 3 Xrotation Yrotation Zrotation
					JOINT LeftToe_End
					{
						OFFSET 2.754700 0.931300 11.300900
						CHANNELS 3 Xrotation Yrotation Zrotation
						End Site
						{
							OFFSET 0.000000 0.000000 0.000000
						}
					}
				}
			}
		}
	}
	JOINT RightUpLeg
	{
		OFFSET -15.569500 -6.655098 0.678600
		CHANNELS 3 Xrotation Yrotation Zrotation
		JOINT RightLeg
		{
			OFFSET -4.081825 -39.591045 13.023800
			CHANNELS 3 Xrotation Yrotation Zrotation
			JOINT RightFoot
			{
				OFFSET 4.081824 -37.707954 -15.979600
				CHANNELS 3 Xrotation Yrotation Zrotation
				JOINT RightToeBase
				{
					OFFSET -5.346400 -15.068900 20.645000
					CHANNELS 3 Xrotation Yrotation Zrotation
					JOINT RightToe_End
					{
						OFFSET -2.754700 0.931300 11.300900
						CHANNELS 3 Xrotation Yrotation Zrotation
						End Site
						{
							OFFSET 0.000000 0.000000 0.000000
						}
					}
				}
			}
		}
	}
}
MOTION
Frames: 4
Frame Time: 0.016667
0.288782 78.877373 -0.156813 3.037459 -58.355053 6.232802 11.190424 0.276972 -2.458367 8.434599 0.027687 -5.592318 0.000000 0.000000 0.000000 8.457025 0.027843 -5.591850 -21.556844 25.063181 12.062626 -0.293121 25.465694 -3.208470 -0.000000 0.000000 -0.000001 -6.221669 -11.503846 -4.023823 0.000000 0.000000 0.000000 -23.062123 9.568608 -36.639617 0.046142 -43.169275 -0.011154 22.743712 -5.685840 15.979243 -1.064236 -7.954935 8.490103 2.373409 19.986085 -2.038312 0.808198 1.237745 2.631742 0.000000 0.000000 -0.000000 13.340897 -1.006669 10.682312 -0.167595 0.303394 -31.105665 -0.143379 0.303629 -32.256224 -0.000001 -0.000000 -0.000001 8.495451 -0.329539 -0.915265 0.231507 0.661248 -29.901875 0.444128 0.213427 -44.357000 0.000001 -0.000000 0.000000 6.111757 3.150932 -16.210923 0.047088 0.322417 -30.125454 0.408805 0.818929 -42.140628 -0.000001 -0.000000 0.000000 -5.636035 7.709869 -13.878576 0.224366 0.276592 -46.588345 0.261238 0.249384 -46.286846 -0.000000 0.000001 -0.000001 -5.488245 10.658291 2.466534 0.000000 0.000000 0.000000 -41.473810 -26.755524 30.078965 24.955457 111.863151 -23.308454 -8.702484 12.422920 -9.802069 0.264999 10.061066 -10.888473 1.383798 -17.412854 3.016286 3.342310 -13.253734 -8.262772 -0.000000 -0.000003 0.000000 19.443587 11.174416 -13.340172 -0.118656 -0.322715 18.035579 -0.089901 -0.286599 23.256606 0.000000 -0.000002 -0.000001 4.320452 2.436969 -4.811721 0.349120 -0.461259 26.890328 0.467495 0.154042 39.044855 0.000000 -0.000002 -0.000000 -7.005625 -10.695131 5.719863 0.111863 -0.089216 26.155887 0.451254 -0.473475 33.265084 -0.000001 0.000000 -0.000000 -19.433545 -20.238197 5.987869 0.223790 -0.085767 36.844568 0.260775 -0.047507 36.471687 -0.000002 -0.000001 -0.000000 -34.681310 8.732969 27.677702 40.315663 -8.738009 -10.519442 -7.471132 -1.705417 -10.812441 -0.367715 1.237920 0.746391 0.000000 0.000000 -0.000000 -31.023204 -7.192949 -29.202470 46.887292 5.281003 -6.185219 -19.297060 0.939293 23.039628 -0.365017 -0.996796 -0.741240 0.000000 0.000000 -0.000000 
0.199036 78.731659 -0.094121 1.365688 -58.623343 4.573051 10.938171 0.085394 -2.225089 7.815277 -0.326026 -5.179800 0.000000 0.000000 0.000000 7.841705 -0.289950 -5.218254 -16.952219 25.003612 11.382614 1.554972 25.240428 -5.687662 0.000000 -0.000000 -0.000000 -6.685502 -11.300283 -5.194098 0.000000 0.000000 0.000000 -20.846111 10.084646 -34.890884 4.501469 -44.384547 0.854215 12.301421 -3.504543 18.746815 -0.817782 -7.008230 8.688579 2.795490 20.865762 -1.954397 1.151895 2.142742 2.837604 -0.000002 0.000001 -0.000001 13.346476 -1.013390 8.858988 -0.165557 0.304576 -32.928981 -0.136672 0.301829 -34.079666 0.000001 -0.000000 0.000000 8.466208 -0.311478 -2.738561 0.241810 0.667315 -31.725286 0.455377 0.216950 -46.180388 -0.000001 -0.000001 -0.000000 6.092976 3.171982 -18.033086 0.048041 0.334607 -31.948825 0.427227 0.817652 -43.964227 -0.000001 -0.000000 0.000001 -5.643670 7.720607 -15.700930 0.231600 0.282303 -48.411729 0.269873 0.253512 -48.110237 -0.000002 0.000001 -0.000002 -5.634363 10.125348 2.634043 0.000000 0.000000 0.000000 -41.005604 -24.756294 29.332183 24.443623 110.510350 -22.235729 -0.953735 8.719433 -11.067486 0.356404 9.641539 -10.977424 1.570928 -17.798308 2.977752 3.459277 -13.663726 -8.327548 -0.000000 0.000002 -0.000001 19.447937 11.177517 -10.409359 -0.115839 -0.325251 20.967287 -0.078790 -0.285425 26.188303 0.000001 -0.000003 -0.000001 4.273851 2.408367 -1.878584 0.365308 -0.471714 29.822091 0.485059 0.146963 41.976413 0.000001 -0.000000 -0.000001 -7.029085 -10.720211 8.646959 0.112290 -0.108826 29.087484 0.480886 -0.475745 36.196830 -0.000000 -0.000001 -0.000002 -19.442352 -20.249269 8.916440 0.233729 -0.096705 39.776252 0.273446 -0.056380 39.403344 0.000000 0.000000 -0.000001 -33.839295 8.723597 28.156669 40.684664 -8.944398 -10.610090 -7.855786 -1.659525 -10.818674 -0.363073 1.238029 0.756962 0.000000 -0.000000 -0.000000 -30.274206 -7.557257 -29.064183 47.057749 5.701329 -6.197954 -19.476650 0.980043 22.813042 -0.360562 -0.996795 -0.751363 0.000000 0.000001 -0.000000 
0.041748 78.534668 0.150152 -0.220776 -58.992535 2.957145 10.332628 -0.329795 -1.634528 6.356268 -1.115946 -4.166066 0.000000 0.000000 0.000000 6.388319 -1.004135 -4.289068 -6.596743 24.682757 10.020962 5.771836 24.455047 -11.198033 -0.000001 0.000000 -0.000000 -7.444595 -11.224854 -7.938095 0.000000 0.000000 0.000000 -17.825474 12.833935 -32.921191 9.087186 -48.058304 1.764687 2.794008 0.641294 21.567477 -0.555615 -5.986835 8.898260 3.257397 21.811553 -1.869784 1.519048 3.119684 3.054334 0.000001 0.000001 0.000001 13.352261 -1.020807 6.893189 -0.163308 0.305704 -34.894948 -0.129491 0.299768 -36.045627 0.000000 -0.000002 0.000001 8.435332 -0.291009 -4.704289 0.253185 0.673453 -33.691339 0.467634 0.220288 -48.146321 0.000000 -0.000002 -0.000000 6.073470 3.195282 -19.997737 0.049519 0.347703 -33.914707 0.447048 0.815608 -45.930331 0.000001 0.000001 0.000004 -5.651532 7.732435 -17.665777 0.239516 0.288172 -50.377710 0.279354 0.257771 -50.076174 -0.000001 -0.000000 0.000000 -5.983466 8.827081 3.075376 0.000000 0.000000 0.000000 -38.745870 -19.254858 28.392004 20.208687 109.867520 -16.299919 7.140801 4.709855 -11.433874 0.455340 9.184269 -11.073771 1.772495 -18.218544 2.932608 3.586234 -14.110731 -8.397652 -0.000003 -0.000000 -0.000002 19.452491 11.181114 -7.215371 -0.112650 -0.327771 24.162120 -0.066822 -0.283478 29.383197 0.000000 -0.000000 0.000000 4.224815 2.374534 1.317745 0.383450 -0.482155 33.017029 0.504649 0.140236 45.171094 -0.000001 -0.000003 -0.000001 -7.053126 -10.748759 11.837130 0.113805 -0.130187 32.282250 0.513245 -0.476457 39.391760 0.000001 -0.000001 -0.000001 -19.451213 -20.261787 12.108212 0.245149 -0.108087 42.971063 0.287698 -0.065314 42.598162 0.000001 -0.000003 0.000001 -32.917707 8.706376 28.672912 41.267658 -9.096017 -10.743986 -8.549811 -1.588001 -10.812562 -0.357272 1.238033 0.769977 -0.000000 0.000000 -0.000000 -29.533448 -7.891905 -28.990516 47.211842 6.260921 -6.203057 -19.703603 1.003943 22.634323 -0.357341 -0.996944 -0.758647 -0.000000 -0.000002 -0.000000 
-0.367820 78.372643 0.615835 -1.823945 -58.930701 1.384752 9.562722 -0.792554 -0.846887 4.553882 -2.005576 -2.831331 0.000000 0.000000 0.000000 4.585548 -1.818084 -3.044918 5.236358 23.944285 8.810545 10.649100 23.072821 -17.338748 -0.000001 -0.000000 -0.000000 -8.310470 -11.099476 -11.307727 0.000000 0.000000 0.000000 -14.786342 15.433472 -31.237191 14.384677 -52.081395 3.335657 -5.543226 5.381407 24.045261 -0.295230 -4.957876 9.104975 3.727178 22.762615 -1.791831 1.885241 4.104446 3.267195 0.000000 0.000001 -0.000002 13.357830 -1.028534 4.914088 -0.161021 0.306754 -36.874135 -0.122330 0.297416 -38.024828 -0.000000 -0.000002 0.000000 8.404990 -0.269307 -6.683302 0.264764 0.679255 -35.670639 0.480107 0.223271 -50.125546 -0.000000 0.000001 0.000002 6.054684 3.219391 -21.975630 0.051450 0.360806 -35.893846 0.466906 0.812859 -47.909699 0.000001 -0.000001 -0.000001 -5.658981 7.744605 -19.643916 0.247712 0.293884 -52.356918 0.288949 0.261640 -52.055382 -0.000001 -0.000000 0.000001 -6.427618 7.045148 3.807187 0.000000 0.000000 0.000000 -35.653809 -12.738060 26.064693 13.821655 110.918454 -7.469548 13.357308 1.174513 -10.753082 0.549457 8.746517 -11.165465 1.973966 -18.615998 2.888150 3.707282 -14.538676 -8.464228 0.000000 -0.000003 0.000002 19.456637 11.184773 -4.158304 -0.109470 -0.330050 27.220008 -0.055406 -0.281025 32.441117 -0.000001 -0.000000 0.000001 4.179714 2.339664 4.376949 0.401390 -0.491181 36.075000 0.523678 0.134864 48.228847 -0.000005 0.000002 -0.000001 -7.074586 -10.777308 14.890789 0.116393 -0.150521 35.340048 0.544144 -0.475468 42.449786 0.000002 -0.000001 -0.000000 -19.459002 -20.274182 15.163331 0.256664 -0.118277 46.028956 0.301836 -0.073056 45.655938 0.000001 0.000003 0.000000 -31.921063 8.786699 28.956662 41.787278 -9.548799 -10.873148 -9.380710 -1.557225 -10.613310 -0.349300 1.238094 0.788134 -0.000000 0.000002 -0.000000 -28.195253 -8.398651 -29.170577 47.182943 6.604585 -6.186784 -20.278615 0.862503 22.740075 -0.355474 -0.996904 -0.762854 -0.000000 0.000001 -0.000000 
